<svg width="318" height="279" xmlns="http://www.w3.org/2000/svg" xmlns:xlink="http://www.w3.org/1999/xlink"><defs><path d="M310.34 153.5l-62.43 108.131a30 30 0 0 1-25.98 15H97.07a30 30 0 0 1-25.98-15L8.66 153.5a30 30 0 0 1 0-30L71.09 15.369a30 30 0 0 1 25.98-15h124.86a30 30 0 0 1 25.98 15L310.34 123.5a30 30 0 0 1 0 30z" id="a"/></defs><g fill="none" fill-rule="evenodd"><g transform="translate(-1 1)"><mask id="b" fill="#fff"><use xlink:href="#a"/></mask><g mask="url(#b)" fill="#FFE01C" fill-rule="nonzero"><path transform="translate(-58 -13)" d="M0.5 0H455.5V303H0.5z"/></g></g><path d="M241.058 66.94c-3.296-3.294-7.255-4.94-11.885-4.94H87.827c-4.627 0-8.589 1.646-11.884 4.94C72.648 70.235 71 74.193 71 78.82v114.365c0 4.626 1.648 8.581 4.943 11.877C79.238 208.356 83.2 210 87.827 210h141.346c4.63 0 8.589-1.644 11.885-4.939 3.295-3.296 4.942-7.253 4.942-11.877V78.819c0-4.626-1.647-8.585-4.942-11.879zm-116.21 126.24c0 .984-.317 1.788-.949 2.42-.63.63-1.436.942-2.419.942H87.827c-.98 0-1.787-.313-2.419-.943-.63-.631-.946-1.435-.946-2.42v-20.182c0-.983.315-1.787.946-2.415.632-.633 1.439-.948 2.42-.948h33.654c.982 0 1.789.315 2.419.948.63.628.947 1.432.947 2.415v20.183zm0-40.362c0 .98-.317 1.787-.949 2.417-.63.63-1.436.946-2.419.946H87.827c-.98 0-1.787-.315-2.419-.946-.63-.63-.946-1.436-.946-2.417v-20.182c0-.981.315-1.788.946-2.418.632-.63 1.439-.945 2.42-.945h33.654c.982 0 1.788.315 2.419.945.63.63.947 1.437.947 2.418v20.182zm0-40.364c0 .982-.317 1.787-.949 2.418-.63.63-1.436.946-2.419.946H87.827c-.98 0-1.787-.317-2.419-.946-.63-.631-.946-1.436-.946-2.418V92.273c0-.982.315-1.788.946-2.418.632-.63 1.439-.946 2.42-.946h33.654c.982 0 1.788.315 2.419.946.63.63.947 1.436.947 2.418v20.181zm53.846 80.726c0 .984-.315 1.788-.944 2.42-.63.63-1.437.942-2.42.942h-33.657c-.98 0-1.788-.313-2.419-.943-.63-.631-.946-1.435-.946-2.42v-20.182c0-.983.315-1.787.946-2.415.631-.633 1.438-.948 2.42-.948h33.654c.983 0 1.79.315 2.42.948.628.628.943 1.432.943 2.415v20.183h.003zm0-40.362c0 .98-.315 1.787-.944 2.417-.63.63-1.437.946-2.42.946h-33.657c-.98 0-1.788-.315-2.419-.946-.63-.63-.946-1.436-.946-2.417v-20.182c0-.981.315-1.788.946-2.418.631-.63 1.438-.945 2.42-.945h33.654c.983 0 1.79.315 2.42.945.628.63.943 1.437.943 2.418v20.182h.003zm0-40.364c0 .982-.315 1.787-.944 2.418-.63.63-1.437.946-2.42.946h-33.657c-.98 0-1.788-.317-2.419-.946-.63-.631-.946-1.436-.946-2.418V92.273c0-.982.315-1.788.946-2.418.631-.63 1.438-.946 2.42-.946h33.654c.983 0 1.79.315 2.42.946.628.63.943 1.436.943 2.418v20.181h.003zm53.844 80.726c0 .984-.315 1.788-.944 2.42-.633.63-1.44.942-2.42.942h-33.651c-.985 0-1.791-.313-2.42-.943-.63-.631-.943-1.435-.943-2.42v-20.182c0-.983.313-1.787.943-2.415.629-.633 1.435-.948 2.42-.948h33.65c.982 0 1.789.315 2.421.948.63.628.944 1.432.944 2.415v20.183zm0-40.362c0 .98-.315 1.787-.944 2.417-.633.63-1.44.946-2.42.946h-33.651c-.985 0-1.791-.315-2.42-.946-.63-.63-.943-1.436-.943-2.417v-20.182c0-.981.313-1.788.943-2.418.629-.63 1.435-.945 2.42-.945h33.65c.982 0 1.789.315 2.421.945.63.63.944 1.437.944 2.418v20.182zm0-40.364c0 .982-.315 1.787-.944 2.418-.633.63-1.44.946-2.42.946h-33.651c-.985 0-1.791-.317-2.42-.946-.63-.631-.943-1.436-.943-2.418V92.273c0-.982.313-1.788.943-2.418.629-.63 1.435-.946 2.42-.946h33.65c.982 0 1.789.315 2.421.946.63.63.944 1.436.944 2.418v20.181z" fill="#000" fill-rule="nonzero"/></g></svg>